<svg data-v-fde0c5aa="" xmlns="http://www.w3.org/2000/svg" viewBox="0 0 300 300" class="iconLeft">
  <defs data-v-fde0c5aa=""/>
  <rect data-v-fde0c5aa="" fill="#003FBA" x="0" y="0" width="300px" height="300px" class="logo-background-square"/>
  <defs data-v-fde0c5aa=""/>
  <g data-v-fde0c5aa="" id="28fc99e7-1f77-4ec5-b66a-b9f57eaf436c" fill="#ffffff" transform="matrix(1.4703353689463836,0,0,1.4703353689463836,84.32433057225516,140.08993994983445)">
    <path fill="#fff" d="M6.23 0.57L3.81 8.76L1.37 0.57L0.41 0.57L3.33 10.22L4.30 10.22L7.18 0.57ZM14.24 6.93C14.24 4.86 12.88 3.54 11.02 3.54C9.17 3.54 7.69 4.86 7.69 6.93C7.69 9.00 9.17 10.36 11.02 10.36C12.25 10.36 13.37 9.77 13.94 8.72L13.17 8.39C12.74 9.10 11.94 9.51 11.05 9.51C9.73 9.51 8.75 8.72 8.60 7.32L14.22 7.32C14.24 7.20 14.24 7.06 14.24 6.93ZM8.61 6.55C8.78 5.15 9.73 4.40 11.02 4.40C12.29 4.40 13.23 5.19 13.36 6.55ZM15.99 10.22L16.88 10.22L16.88 0L15.99 0ZM20.97 10.36C22.33 10.36 23.38 9.62 23.38 8.46C23.38 7.70 22.99 6.93 21.71 6.62L20.75 6.38C20.27 6.27 19.74 6.01 19.74 5.39C19.74 4.77 20.26 4.34 21.01 4.34C21.66 4.34 22.23 4.73 22.27 5.32L23.14 5.32C23.10 4.14 22.09 3.54 21 3.54C19.75 3.54 18.84 4.31 18.84 5.38C18.84 6.47 19.59 6.94 20.51 7.17L21.45 7.39C22.12 7.56 22.48 7.91 22.48 8.44C22.48 9.10 21.91 9.56 20.97 9.56C20.02 9.56 19.52 9.00 19.42 8.46L18.59 8.46C18.70 9.70 19.84 10.36 20.97 10.36ZM27.96 3.68L26.46 3.68L26.46 1.08L25.58 1.08L25.58 3.68L24.39 3.68L24.39 4.45L25.58 4.45L25.58 10.22L26.46 10.22L26.46 4.45L27.96 4.45ZM34.66 3.68L34.66 4.94C34.17 4.06 33.17 3.54 32.06 3.54C30.23 3.54 28.74 4.96 28.74 6.94C28.74 8.93 30.24 10.36 32.06 10.36C33.15 10.36 34.17 9.84 34.66 8.95L34.66 10.22L35.56 10.22L35.56 3.68ZM32.13 9.51C30.76 9.51 29.64 8.39 29.64 6.93C29.64 5.49 30.76 4.40 32.13 4.40C33.43 4.40 34.66 5.39 34.66 6.97C34.66 8.48 33.49 9.51 32.13 9.51ZM40.96 3.54C40.15 3.54 39.09 3.92 38.70 4.86L38.70 3.68L37.80 3.68L37.80 10.22L38.70 10.22L38.70 6.59C38.72 5.01 39.83 4.42 40.88 4.42C41.93 4.42 42.73 5.19 42.73 6.45L42.73 10.22L43.62 10.22L43.62 6.41C43.62 4.61 42.55 3.54 40.96 3.54ZM51.24 0L51.24 4.94C50.75 4.06 49.74 3.54 48.64 3.54C46.80 3.54 45.32 4.96 45.32 6.94C45.32 8.93 46.82 10.36 48.64 10.36C49.73 10.36 50.75 9.84 51.24 8.95L51.24 10.22L52.14 10.22L52.14 0ZM48.71 9.51C47.33 9.51 46.21 8.39 46.21 6.93C46.21 5.49 47.33 4.40 48.71 4.40C50.01 4.40 51.24 5.39 51.24 6.97C51.24 8.48 50.06 9.51 48.71 9.51ZM57.88 3.54C56.77 3.54 55.76 4.06 55.27 4.96L55.27 0L54.38 0L54.38 10.22L55.27 10.22L55.27 8.93C55.75 9.83 56.78 10.36 57.88 10.36C59.71 10.36 61.19 8.93 61.19 6.94C61.19 4.96 59.71 3.54 57.88 3.54ZM57.81 9.51C56.45 9.51 55.27 8.48 55.27 6.97C55.27 5.39 56.50 4.40 57.81 4.40C59.19 4.40 60.31 5.49 60.31 6.93C60.31 8.39 59.19 9.51 57.81 9.51ZM65.69 3.68L64.19 3.68L64.19 1.08L63.31 1.08L63.31 3.68L62.12 3.68L62.12 4.45L63.31 4.45L63.31 10.22L64.19 10.22L64.19 4.45L65.69 4.45ZM72.39 3.68L72.39 4.94C71.90 4.06 70.90 3.54 69.79 3.54C67.96 3.54 66.47 4.96 66.47 6.94C66.47 8.93 67.97 10.36 69.79 10.36C70.88 10.36 71.90 9.84 72.39 8.96L72.39 9.30C72.39 11.82 71.34 12.63 69.75 12.63C68.96 12.63 68.15 12.24 67.68 11.47L66.92 11.89C67.56 12.95 68.64 13.48 69.75 13.48C71.88 13.48 73.29 12.42 73.29 9.25L73.29 3.68ZM69.86 9.51C68.49 9.51 67.37 8.39 67.37 6.93C67.37 5.49 68.49 4.40 69.86 4.40C71.16 4.40 72.39 5.39 72.39 6.97C72.39 8.48 71.22 9.51 69.86 9.51ZM79.20 10.22L80.09 10.22L80.09 0L79.20 0ZM82.78 1.90C83.17 1.90 83.48 1.64 83.48 1.27C83.48 0.90 83.17 0.63 82.78 0.63C82.42 0.63 82.10 0.90 82.10 1.27C82.10 1.64 82.42 1.90 82.78 1.90ZM82.33 10.22L83.23 10.22L83.23 3.68L82.33 3.68ZM93.31 3.54C92.51 3.54 91.38 3.81 90.90 5.11C90.54 4.10 89.67 3.54 88.61 3.54C87.64 3.54 86.70 3.99 86.37 4.86L86.37 3.68L85.47 3.68L85.47 10.22L86.37 10.22L86.37 6.59C86.39 5.03 87.40 4.41 88.45 4.41C89.49 4.41 90.24 5.18 90.24 6.45L90.24 10.22L91.13 10.22L91.13 6.83L91.14 6.89C91.04 5.29 91.94 4.40 93.17 4.41C94.25 4.41 95.00 5.19 95.00 6.45L95.00 10.22L95.90 10.22L95.90 6.41C95.90 4.61 94.89 3.54 93.31 3.54ZM98.50 1.90C98.90 1.90 99.20 1.64 99.20 1.27C99.20 0.90 98.90 0.63 98.50 0.63C98.14 0.63 97.82 0.90 97.82 1.27C97.82 1.64 98.14 1.90 98.50 1.90ZM98.06 10.22L98.95 10.22L98.95 3.68L98.06 3.68ZM104.02 3.68L102.52 3.68L102.52 1.08L101.64 1.08L101.64 3.68L100.45 3.68L100.45 4.45L101.64 4.45L101.64 10.22L102.52 10.22L102.52 4.45L104.02 4.45ZM111.36 6.93C111.36 4.86 110.00 3.54 108.14 3.54C106.29 3.54 104.80 4.86 104.80 6.93C104.80 9.00 106.29 10.36 108.14 10.36C109.37 10.36 110.49 9.77 111.06 8.72L110.29 8.39C109.86 9.10 109.06 9.51 108.16 9.51C106.85 9.51 105.87 8.72 105.71 7.32L111.34 7.32C111.36 7.20 111.36 7.06 111.36 6.93ZM105.73 6.55C105.90 5.15 106.85 4.40 108.14 4.40C109.41 4.40 110.35 5.19 110.47 6.55ZM118.58 0L118.58 4.94C118.09 4.06 117.08 3.54 115.98 3.54C114.14 3.54 112.66 4.96 112.66 6.94C112.66 8.93 114.16 10.36 115.98 10.36C117.07 10.36 118.09 9.84 118.58 8.95L118.58 10.22L119.48 10.22L119.48 0ZM116.05 9.51C114.67 9.51 113.55 8.39 113.55 6.93C113.55 5.49 114.67 4.40 116.05 4.40C117.35 4.40 118.58 5.39 118.58 6.97C118.58 8.48 117.40 9.51 116.05 9.51Z"/>
  </g>
  <defs data-v-fde0c5aa=""/>
  <g data-v-fde0c5aa="" id="64e6e5b9-5296-4afb-9be6-9777a2fb4d30" stroke="none" fill="#34A1E5" transform="matrix(0.9977240021332766,0,0,0.9977240021332766,40,132.9389194207954)">
    <circle cx="25.044" cy="25.043" r="6.956"/>
    <circle cx="6.956" cy="25.043" r="6.956"/>
    <path d="M.172 2.201H13.74v13.568H.172zM18.432 2.201H32v13.568H18.432z"/>
  </g>
</svg>
